<?xml version="1.0" encoding="iso-8859-1"?>
<!-- Generator: Adobe Illustrator 19.0.0, SVG Export Plug-In . SVG Version: 6.00 Build 0)  -->
<svg version="1.1" id="Layer_1" xmlns="http://www.w3.org/2000/svg" xmlns:xlink="http://www.w3.org/1999/xlink" x="0px" y="0px"
	 viewBox="0 0 512.001 512.001" style="enable-background:new 0 0 512.001 512.001;" xml:space="preserve">
<path style="fill:#337154;" d="M223.976,7.847h64.038l0,0c48.629,0,88.051,39.421,88.051,88.051v132.291
	c38.71,27.571,64.038,72.713,64.038,123.859c0,83.997-68.093,152.09-152.091,152.089h-64.035"/>
<path style="fill:#004E29;" d="M374.964,228.189V95.898c0-48.629-38.321-88.599-86.95-88.599h-25.85
	c48.629,0,90.829,39.97,90.829,88.599v132.291c38.711,27.571,62.648,72.778,62.648,123.923c0,83.997-69.482,152.153-153.48,152.153
	h25.851c83.997,0,151.54-68.157,151.54-152.153C439.552,300.967,415.767,255.76,374.964,228.189z"/>
<path style="fill:#8CC63F;" d="M312.027,228.189V95.898c0-48.629-39.422-88.051-88.051-88.051l0,0
	c-48.629,0-88.051,39.421-88.051,88.051v132.291c-43.053,30.664-69.553,83.066-63.063,141.286
	c7.759,69.61,63.84,125.817,133.44,133.663c91.906,10.36,169.764-61.273,169.764-151.09
	C376.064,300.903,350.737,255.76,312.027,228.189z"/>
<g>
	<path style="fill:#39B54A;" d="M239.788,503.138c-69.6-7.846-125.961-64.053-133.72-133.663
		c-6.489-58.22,21.981-110.622,62.784-141.286V95.898c0-42.899,30.972-78.59,71.587-86.416c-5.425-1.045-10.626-1.635-16.356-1.635
		c-48.629,0-87.664,39.421-87.664,88.052V228.19c-43.942,30.664-69.8,83.066-63.311,141.286
		c7.759,69.61,63.716,125.817,133.317,133.663c11.732,1.322,23.167,1.292,34.307,0.075
		C240.437,503.181,240.084,503.172,239.788,503.138z"/>
	<circle style="fill:#39B54A;" cx="211.97" cy="364.052" r="92.054"/>
</g>
<circle style="fill:#AE7418;" cx="223.971" cy="352.051" r="80.048"/>
<path style="fill:#A3D165;" d="M311.143,228.189V95.898c0-48.629-38.98-88.052-87.609-88.052c-6.895,0-13.661,0.873-20.099,2.372
	c38.972,9.073,67.952,43.945,67.952,85.679v132.291c38.711,27.571,64.347,72.713,64.347,123.859
	c0,77.2-57.381,140.913-131.902,150.725c0.778,0.1,1.611,0.277,2.394,0.365c91.906,10.36,169.36-61.273,169.36-151.09
	C375.583,300.903,350.9,255.76,311.143,228.189z"/>
<circle style="fill:#BE9046;" cx="215.967" cy="360.055" r="56.037"/>
<path d="M223.976,439.942c-48.464,0-87.893-39.429-87.893-87.894c0-48.464,39.429-87.893,87.893-87.893
	c48.465,0,87.893,39.429,87.893,87.893C311.869,400.513,272.44,439.942,223.976,439.942z M223.976,279.849
	c-39.811,0-72.199,32.389-72.199,72.199c0,39.812,32.389,72.2,72.199,72.2s72.199-32.389,72.199-72.2
	C296.175,312.237,263.786,279.849,223.976,279.849z"/>
<path style="fill:#FFFFFF;" d="M279.851,352.56h-15.694c0-23.017-17.882-40.693-39.854-40.693v-15.694
	C254.645,296.173,279.851,321.172,279.851,352.56z"/>
<rect x="335.207" y="63.796" width="17.786" height="15.694"/>
<rect x="391.705" y="328.5" width="16.74" height="15.694"/>
<rect x="335.207" y="208.182" width="17.786" height="15.694"/>
<path d="M383.911,224.208V95.898C383.911,43.02,340.892,0,288.012,0h-64.038c-52.878,0-95.898,43.02-95.898,95.898v128.31
	c-21.251,15.962-38.277,36.973-49.386,60.997c-12.187,26.356-16.9,55.797-13.629,85.139c8.16,73.216,67.19,132.344,140.359,140.591
	c6.316,0.712,12.593,1.065,18.819,1.065c0.485,0,63.772-0.017,63.772-0.017c0.003,0-0.002,0,0.001,0
	c42.717,0,82.886-16.637,113.092-46.844c30.208-30.208,46.845-70.371,46.845-113.092
	C447.949,301.874,424.088,254.392,383.911,224.208z M232.674,496.037v-15.836h-15.694v15.908c-3.255-0.153-6.521-0.399-9.801-0.769
	c-65.955-7.435-119.164-60.735-126.52-126.735c-2.954-26.496,1.292-53.058,12.277-76.814c10.534-22.779,26.972-42.562,47.54-57.212
	l3.295-2.347V95.898c0-41.867,32.249-76.323,73.209-79.881v23.715h15.694V16.173c40.148,4.351,71.507,38.439,71.507,79.725v136.336
	l3.295,2.347c38.035,27.089,60.743,71.002,60.743,117.467c0,41.021-17.556,80.237-48.167,107.591
	C295.405,481.663,265.044,494.174,232.674,496.037z M399.027,432.074v-8.37h14.234c-6.294,10.96-14.076,21.161-23.254,30.339
	c-11.016,11.016-23.504,20.02-37.015,26.849v-9.059h-17.786v15.694h2.497c-14.01,5.127-28.858,8.074-44.125,8.649
	c13.199-6.411,25.609-14.716,36.93-24.834c5.323-4.757,10.284-9.842,14.874-15.203h23.304v-15.694h-11.456
	c11.35-17.131,19.327-36.321,23.444-56.497h11.028v-15.694h-8.625c0.548-5.361,0.834-10.768,0.834-16.205
	c0-19.343-3.56-38.28-10.22-55.986h9.642V280.37h-14.647v3.834c-11.007-23.376-27.64-44.089-48.812-59.995v-16.031h15.332v-15.694
	h-15.332v-63.821h8.008V112.97h-8.008V95.898c0-20.96-6.762-40.37-18.217-56.166h2.162V24.039h-14.647v1.615
	c-3.939-3.658-8.177-6.998-12.688-9.96h11.53c18.408,0,35.374,6.248,48.924,16.715h-1.732v15.694h17.172
	c9.945,13.357,15.839,29.901,15.839,47.796v32.765h-15.226v14.647h-17.786v15.694h17.786v-14.647h15.226v87.877l3.295,2.347
	c6.148,4.379,11.888,9.203,17.204,14.401h-13.754v15.694h16.74v-12.688c16.538,17.146,28.56,38.081,35.044,60.815h-18.304v15.694
	h21.839c1.293,7.73,1.973,15.602,1.973,23.552c0,19.539-3.866,38.481-11.222,55.963h-22.007v8.37h-15.694v15.694L399.027,432.074
	L399.027,432.074z"/>
<g>
</g>
<g>
</g>
<g>
</g>
<g>
</g>
<g>
</g>
<g>
</g>
<g>
</g>
<g>
</g>
<g>
</g>
<g>
</g>
<g>
</g>
<g>
</g>
<g>
</g>
<g>
</g>
<g>
</g>
</svg>
