<svg xmlns="http://www.w3.org/2000/svg" xmlns:xlink="http://www.w3.org/1999/xlink" width="200" zoomAndPan="magnify" viewBox="0 0 150 37.5" height="50" preserveAspectRatio="xMidYMid meet" version="1.0"><defs><g/></defs><g fill="rgb(100%, 55.288696%, 33.329773%)" fill-opacity="0.4"><g transform="translate(45.185906, 17.145411)"><g><path d="M 11.03125 -12.648438 L 11.03125 -15.566406 L 1.363281 -15.566406 L 1.363281 0 L 4.28125 0 L 4.28125 -5.507812 L 8.5625 -5.507812 L 8.5625 -8.425781 L 4.28125 -8.425781 L 4.28125 -12.648438 Z M 11.03125 -12.648438 "/></g></g></g><g fill="rgb(100%, 55.288696%, 33.329773%)" fill-opacity="0.4"><g transform="translate(56.975469, 17.145411)"><g><path d="M 10.546875 0 L 13.582031 0 L 9.007812 -15.527344 L 9.007812 -15.566406 L 5.953125 -15.566406 L 1.363281 0 L 4.417969 0 L 5.566406 -3.871094 L 9.398438 -3.871094 Z M 6.421875 -6.769531 L 7.492188 -10.390625 L 8.542969 -6.769531 Z M 6.421875 -6.769531 "/></g></g></g><g fill="rgb(100%, 55.288696%, 33.329773%)" fill-opacity="0.4"><g transform="translate(71.916698, 17.145411)"><g><path d="M 7.820312 0.195312 L 8.171875 0.195312 C 11.519531 0.175781 13.425781 -2.003906 13.5625 -4.164062 C 13.714844 -6.421875 12.003906 -8.949219 7.878906 -9.476562 L 7.839844 -9.476562 C 6.34375 -9.648438 4.785156 -10.390625 4.863281 -11.480469 C 4.921875 -12.257812 6.089844 -12.976562 8.210938 -12.878906 L 8.269531 -12.878906 C 9.4375 -12.878906 10.835938 -12.316406 11.558594 -11.789062 L 13.230469 -14.125 C 12.121094 -14.921875 10.175781 -15.738281 8.308594 -15.738281 C 4.183594 -15.953125 2.179688 -13.851562 2.003906 -11.710938 C 1.90625 -10.46875 2.433594 -9.242188 3.445312 -8.308594 C 4.4375 -7.394531 5.855469 -6.808594 7.53125 -6.632812 C 9.804688 -6.324219 10.757812 -5.273438 10.699219 -4.359375 C 10.640625 -3.523438 9.746094 -2.683594 8.132812 -2.683594 L 8.035156 -2.683594 C 8.015625 -2.683594 5.894531 -2.566406 4.589844 -3.636719 C 4.261719 -3.890625 3.988281 -4.203125 3.734375 -4.570312 L 1.363281 -2.957031 C 1.75 -2.375 2.238281 -1.847656 2.78125 -1.402344 C 4.554688 0.0390625 6.886719 0.195312 7.820312 0.195312 Z M 7.820312 0.195312 "/></g></g></g><g fill="rgb(100%, 55.288696%, 33.329773%)" fill-opacity="0.4"><g transform="translate(86.838473, 17.145411)"><g><path d="M 13.054688 -15.566406 L 1.363281 -15.566406 L 1.363281 -12.664062 L 5.757812 -12.664062 L 5.757812 0 L 8.65625 0 L 8.65625 -12.664062 L 13.054688 -12.664062 Z M 13.054688 -15.566406 "/></g></g></g><g fill="rgb(88.62915%, 63.139343%, 39.608765%)" fill-opacity="1"><g transform="translate(46.321194, 16.709614)"><g><path d="M 11.03125 -12.648438 L 11.03125 -15.566406 L 1.363281 -15.566406 L 1.363281 0 L 4.28125 0 L 4.28125 -5.507812 L 8.5625 -5.507812 L 8.5625 -8.425781 L 4.28125 -8.425781 L 4.28125 -12.648438 Z M 11.03125 -12.648438 "/></g></g></g><g fill="rgb(88.62915%, 63.139343%, 39.608765%)" fill-opacity="1"><g transform="translate(58.110758, 16.709614)"><g><path d="M 10.546875 0 L 13.582031 0 L 9.007812 -15.527344 L 9.007812 -15.566406 L 5.953125 -15.566406 L 1.363281 0 L 4.417969 0 L 5.566406 -3.871094 L 9.398438 -3.871094 Z M 6.421875 -6.769531 L 7.492188 -10.390625 L 8.542969 -6.769531 Z M 6.421875 -6.769531 "/></g></g></g><g fill="rgb(88.62915%, 63.139343%, 39.608765%)" fill-opacity="1"><g transform="translate(73.051987, 16.709614)"><g><path d="M 7.820312 0.195312 L 8.171875 0.195312 C 11.519531 0.175781 13.425781 -2.003906 13.5625 -4.164062 C 13.714844 -6.421875 12.003906 -8.949219 7.878906 -9.476562 L 7.839844 -9.476562 C 6.34375 -9.648438 4.785156 -10.390625 4.863281 -11.480469 C 4.921875 -12.257812 6.089844 -12.976562 8.210938 -12.878906 L 8.269531 -12.878906 C 9.4375 -12.878906 10.835938 -12.316406 11.558594 -11.789062 L 13.230469 -14.125 C 12.121094 -14.921875 10.175781 -15.738281 8.308594 -15.738281 C 4.183594 -15.953125 2.179688 -13.851562 2.003906 -11.710938 C 1.90625 -10.46875 2.433594 -9.242188 3.445312 -8.308594 C 4.4375 -7.394531 5.855469 -6.808594 7.53125 -6.632812 C 9.804688 -6.324219 10.757812 -5.273438 10.699219 -4.359375 C 10.640625 -3.523438 9.746094 -2.683594 8.132812 -2.683594 L 8.035156 -2.683594 C 8.015625 -2.683594 5.894531 -2.566406 4.589844 -3.636719 C 4.261719 -3.890625 3.988281 -4.203125 3.734375 -4.570312 L 1.363281 -2.957031 C 1.75 -2.375 2.238281 -1.847656 2.78125 -1.402344 C 4.554688 0.0390625 6.886719 0.195312 7.820312 0.195312 Z M 7.820312 0.195312 "/></g></g></g><g fill="rgb(88.62915%, 63.139343%, 39.608765%)" fill-opacity="1"><g transform="translate(87.973762, 16.709614)"><g><path d="M 13.054688 -15.566406 L 1.363281 -15.566406 L 1.363281 -12.664062 L 5.757812 -12.664062 L 5.757812 0 L 8.65625 0 L 8.65625 -12.664062 L 13.054688 -12.664062 Z M 13.054688 -15.566406 "/></g></g></g><g fill="rgb(100%, 100%, 100%)" fill-opacity="0.4"><g transform="translate(38.970677, 36.090971)"><g><path d="M 16.828125 -15.585938 L 15 -6.441406 L 12.296875 -15.605469 L 9.085938 -15.605469 L 9.085938 -15.585938 L 6.402344 -6.441406 L 4.554688 -15.585938 L 1.363281 -15.585938 L 4.515625 0 L 7.703125 0 L 10.699219 -10.15625 L 13.695312 0 L 16.886719 0 L 20.019531 -15.585938 Z M 16.828125 -15.585938 "/></g></g></g><g fill="rgb(100%, 100%, 100%)" fill-opacity="0.4"><g transform="translate(60.351421, 36.090971)"><g><path d="M 10.390625 -12.683594 L 10.390625 -15.585938 L 1.363281 -15.585938 L 1.363281 0 L 10.390625 0 L 10.390625 -2.898438 L 4.28125 -2.898438 L 4.28125 -6.363281 L 7.917969 -6.363281 L 7.917969 -9.261719 L 4.28125 -9.261719 L 4.28125 -12.683594 Z M 10.390625 -12.683594 "/></g></g></g><g fill="rgb(100%, 100%, 100%)" fill-opacity="0.4"><g transform="translate(72.102076, 36.090971)"><g><path d="M 1.363281 -15.566406 L 4.28125 -15.566406 L 4.28125 -0.0585938 L 1.363281 -0.0585938 Z M 1.363281 -15.566406 "/></g></g></g><g fill="rgb(100%, 100%, 100%)" fill-opacity="0.4"><g transform="translate(77.743947, 36.090971)"><g><path d="M 13.523438 -9.726562 C 13.523438 -12.957031 12.042969 -15.566406 8.074219 -15.566406 L 1.363281 -15.566406 L 1.363281 0 L 4.28125 0 L 4.28125 -3.871094 L 8.074219 -3.871094 C 8.425781 -3.871094 8.753906 -3.890625 9.066406 -3.929688 L 10.46875 0 L 13.523438 0 L 11.75 -4.980469 C 13.035156 -6.050781 13.523438 -7.78125 13.523438 -9.726562 Z M 4.28125 -6.789062 L 4.28125 -12.664062 L 8.074219 -12.664062 C 9.515625 -12.664062 9.902344 -12.179688 10.039062 -12.023438 C 10.410156 -11.558594 10.605469 -10.738281 10.605469 -9.726562 C 10.605469 -8.65625 10.410156 -7.839844 10.058594 -7.414062 C 9.726562 -6.984375 9.066406 -6.789062 8.074219 -6.789062 Z M 4.28125 -6.789062 "/></g></g></g><g fill="rgb(100%, 100%, 100%)" fill-opacity="0.4"><g transform="translate(92.62681, 36.090971)"><g><path d="M 6.460938 -15.566406 L 1.363281 -15.566406 L 1.363281 0 L 6.460938 0 C 10.566406 0 13.484375 -3.484375 13.484375 -7.78125 C 13.484375 -12.082031 10.449219 -15.566406 6.460938 -15.566406 Z M 6.460938 -12.664062 C 8.773438 -12.664062 10.585938 -10.527344 10.585938 -7.78125 C 10.585938 -6.382812 10.15625 -5.117188 9.339844 -4.203125 C 8.8125 -3.597656 7.898438 -2.898438 6.460938 -2.898438 L 4.261719 -2.898438 L 4.261719 -12.664062 Z M 6.460938 -12.664062 "/></g></g></g><g fill="rgb(0%, 0%, 0%)" fill-opacity="1"><g transform="translate(40.105965, 35.655175)"><g><path d="M 16.828125 -15.585938 L 15 -6.441406 L 12.296875 -15.605469 L 9.085938 -15.605469 L 9.085938 -15.585938 L 6.402344 -6.441406 L 4.554688 -15.585938 L 1.363281 -15.585938 L 4.515625 0 L 7.703125 0 L 10.699219 -10.15625 L 13.695312 0 L 16.886719 0 L 20.019531 -15.585938 Z M 16.828125 -15.585938 "/></g></g></g><g fill="rgb(0%, 0%, 0%)" fill-opacity="1"><g transform="translate(61.486709, 35.655175)"><g><path d="M 10.390625 -12.683594 L 10.390625 -15.585938 L 1.363281 -15.585938 L 1.363281 0 L 10.390625 0 L 10.390625 -2.898438 L 4.28125 -2.898438 L 4.28125 -6.363281 L 7.917969 -6.363281 L 7.917969 -9.261719 L 4.28125 -9.261719 L 4.28125 -12.683594 Z M 10.390625 -12.683594 "/></g></g></g><g fill="rgb(0%, 0%, 0%)" fill-opacity="1"><g transform="translate(73.237364, 35.655175)"><g><path d="M 1.363281 -15.566406 L 4.28125 -15.566406 L 4.28125 -0.0585938 L 1.363281 -0.0585938 Z M 1.363281 -15.566406 "/></g></g></g><g fill="rgb(0%, 0%, 0%)" fill-opacity="1"><g transform="translate(78.879235, 35.655175)"><g><path d="M 13.523438 -9.726562 C 13.523438 -12.957031 12.042969 -15.566406 8.074219 -15.566406 L 1.363281 -15.566406 L 1.363281 0 L 4.28125 0 L 4.28125 -3.871094 L 8.074219 -3.871094 C 8.425781 -3.871094 8.753906 -3.890625 9.066406 -3.929688 L 10.46875 0 L 13.523438 0 L 11.75 -4.980469 C 13.035156 -6.050781 13.523438 -7.78125 13.523438 -9.726562 Z M 4.28125 -6.789062 L 4.28125 -12.664062 L 8.074219 -12.664062 C 9.515625 -12.664062 9.902344 -12.179688 10.039062 -12.023438 C 10.410156 -11.558594 10.605469 -10.738281 10.605469 -9.726562 C 10.605469 -8.65625 10.410156 -7.839844 10.058594 -7.414062 C 9.726562 -6.984375 9.066406 -6.789062 8.074219 -6.789062 Z M 4.28125 -6.789062 "/></g></g></g><g fill="rgb(0%, 0%, 0%)" fill-opacity="1"><g transform="translate(93.762099, 35.655175)"><g><path d="M 6.460938 -15.566406 L 1.363281 -15.566406 L 1.363281 0 L 6.460938 0 C 10.566406 0 13.484375 -3.484375 13.484375 -7.78125 C 13.484375 -12.082031 10.449219 -15.566406 6.460938 -15.566406 Z M 6.460938 -12.664062 C 8.773438 -12.664062 10.585938 -10.527344 10.585938 -7.78125 C 10.585938 -6.382812 10.15625 -5.117188 9.339844 -4.203125 C 8.8125 -3.597656 7.898438 -2.898438 6.460938 -2.898438 L 4.261719 -2.898438 L 4.261719 -12.664062 Z M 6.460938 -12.664062 "/></g></g></g></svg>